<?xml version="1.0" encoding="utf-8"?>
<!--Generator: Adobe Illustrator 23.0.2, SVG Export Plug-In . SVG Version: 6.00 Build 0)-->
<svg xmlns="http://www.w3.org/2000/svg" xmlns:xlink="http://www.w3.org/1999/xlink" id="Layer_1" x="0px" y="0px" style="enable-background:new 0 0 328.9 158.1" version="1.1" viewBox="0 0 328.9 158.1" xml:space="preserve">
    <style type="text/css">
        .st0{fill:#ffffff;}
    </style>
    <title>
        Artboard 1
    </title>
    <path d="M81.5,32.8c-0.4,4.2-4.1,7.3-8.3,6.9c-4.2-0.4-7.3-4.1-6.9-8.3c0.4-4.2,4.1-7.3,8.3-6.9
	C78.8,24.9,81.9,28.6,81.5,32.8C81.5,32.8,81.5,32.8,81.5,32.8 M83.1,22.7L83.1,22.7C71.5,11,48.2,8.4,2.9,27.9
	C2.7,28,2,28.3,2,28.3c-1.2,0.8-2,2.1-2,3.6c-0.1,2.3,1.7,4.2,4,4.2c0.1,0,0.1,0,0.2,0c0.7-0.1,1.4-0.3,2-0.6
	c6.7-2.4,39.5-11.4,56.7,4.2c0.6,0.5,1.1,0.9,1.6,1.4s1,1,1.4,1.6c15.6,17.3,6.6,50.1,4.1,56.7c-0.3,0.6-0.5,1.3-0.6,2
	c-0.1,2.3,1.7,4.2,4,4.2c0.1,0,0.1,0,0.2,0c1.5,0,2.8-0.8,3.6-2c0.2-0.3,0.3-0.6,0.4-0.9C97.4,57.6,94.8,34.3,83.1,22.7" class="st0"/>
    <path d="M105.6,10.8c-0.5,5.4-5.3,9.5-10.7,9c-5.4-0.5-9.5-5.3-9-10.7c0.5-5.4,5.3-9.5,10.7-9
	C102,0.5,106.1,5.3,105.6,10.8" class="st0"/>
    <path d="M60.5,51.2c-0.3,2.9-2.8,5-5.6,4.7c-2.9-0.3-5-2.8-4.7-5.6c0.3-2.9,2.8-5,5.6-4.7
	C58.6,45.8,60.7,48.3,60.5,51.2C60.5,51.2,60.5,51.2,60.5,51.2" class="st0"/>
    <path d="M45.9,64.3c-0.2,2.1-2.1,3.7-4.2,3.5c-2.1-0.2-3.7-2.1-3.5-4.2c0.2-2.1,2.1-3.7,4.2-3.5c0,0,0,0,0,0
	C44.5,60.3,46.1,62.2,45.9,64.3" class="st0"/>
    <path d="M240.8,23.2h-9.3c-1.4,0.1-2.4,1.3-2.3,2.7v31.2h-32.2V25.9c0.1-1.4-1-2.6-2.3-2.7h-9.4
	c-1.4,0.1-2.4,1.3-2.3,2.7v79c0,1.4,1,2.5,2.3,2.7h9.4c1.4-0.1,2.4-1.3,2.3-2.7V72.4h32.2v32.5c-0.1,1.4,1,2.6,2.3,2.7h9.3
	c1.4-0.1,2.4-1.3,2.3-2.7v-79C243.2,24.5,242.2,23.4,240.8,23.2z" class="st0"/>
    <path d="M172.9,23.2h-41.2c-1.4,0.1-2.4,1.3-2.3,2.7v79c-0.1,1.4,1,2.6,2.3,2.7h9.3c1.4-0.1,2.4-1.3,2.3-2.7V72.4H168
	c1.3-0.1,2.4-1.3,2.3-2.6v-9.8c0-1.4-1-2.5-2.3-2.7h-24.6V38.4h29.6c1.4-0.1,2.4-1.3,2.3-2.7v-9.8C175.3,24.5,174.3,23.3,172.9,23.2
	z" class="st0"/>
    <path d="M270.7,23.2h-9.4c-1.4,0.1-2.4,1.3-2.3,2.7v79c0,1.4,1,2.5,2.3,2.7h9.4c1.4-0.1,2.4-1.3,2.3-2.7v-79
	C273.1,24.5,272.1,23.4,270.7,23.2z" class="st0"/>
    <rect width="291.2" height="0.6" x="37.5" y="122.9" class="st0"/>
    <path d="M37.5,135.6c0-0.3,0.3-0.6,0.6-0.6c0,0,0,0,0,0h13c0.3,0,0.6,0.3,0.6,0.6l0,0v1.8c0,0.3-0.3,0.6-0.6,0.6l0,0
	H40.9v7.5h8.6c0.3,0,0.6,0.3,0.6,0.6v1.8c0,0.3-0.3,0.6-0.6,0.6h-8.6v8.5c0,0.3-0.3,0.6-0.6,0.6h-2.1c-0.3,0-0.6-0.3-0.6-0.6
	c0,0,0,0,0,0V135.6z" class="st0"/>
    <path d="M59.4,142.4c4.3-0.1,7.9,3.3,8,7.6c0.1,4.3-3.3,7.9-7.6,8c-4.3,0.1-7.9-3.3-8-7.6c0-0.1,0-0.1,0-0.2
	C51.7,145.9,55.1,142.5,59.4,142.4z M59.4,155c2.5-0.1,4.5-2.1,4.4-4.6c0-0.1,0-0.1,0-0.2c0.2-2.5-1.7-4.6-4.2-4.7
	c-2.5-0.2-4.6,1.7-4.7,4.2c0,0.2,0,0.4,0,0.6c-0.1,2.5,1.8,4.6,4.3,4.8C59.2,155,59.3,155,59.4,155z" class="st0"/>
    <path d="M70.1,135.7c0-0.4,0.3-0.7,0.7-0.7h1.8c0.4,0,0.7,0.3,0.7,0.7V157c0,0.4-0.3,0.7-0.7,0.7h-1.8
	c-0.4,0-0.7-0.3-0.7-0.7l0,0L70.1,135.7z" class="st0"/>
    <path d="M79,135.7c0-0.4,0.3-0.7,0.7-0.7h1.8c0.4,0,0.7,0.3,0.7,0.7v12.7l5.8-5.2c0.2-0.3,0.6-0.4,0.9-0.5h2.4
	c0.3,0,0.6,0.3,0.6,0.6c0,0.1-0.1,0.3-0.2,0.4l-6,5.7l6.3,7.2c0.3,0.4,0.2,1-0.4,1h-2.7c-0.3,0-0.5-0.1-0.7-0.3l-6-7v6.5
	c0,0.4-0.3,0.7-0.7,0.7h-1.8c-0.4,0-0.7-0.3-0.7-0.7v0V135.7z" class="st0"/>
    <path d="M101.5,142.4c3.7-0.1,6.7,2.8,6.8,6.5c0,0.1,0,0.3,0,0.4c0,0.3,0,0.8-0.1,1c0,0.4-0.3,0.6-0.7,0.6H97.3
	c0.2,2.3,2.1,4.1,4.5,4.1c1.3,0,2.6-0.4,3.7-1.3c0.3-0.2,0.6-0.3,0.9,0.1l0.9,1.4c0.3,0.3,0.4,0.6-0.1,1c-1.6,1.2-3.5,1.9-5.5,1.9
	c-4.5,0-7.5-3.6-7.5-7.8S97,142.4,101.5,142.4z M105.1,148.6c-0.1-1.9-1.7-3.5-3.7-3.4c0,0,0,0,0,0c-2-0.1-3.8,1.4-4,3.4H105.1z" class="st0"/>
    <path d="M112.2,135.7c0-0.4,0.3-0.7,0.7-0.7h1.8c0.4,0,0.7,0.3,0.7,0.7v8.2c1.2-1,2.8-1.5,4.3-1.6c4.2,0,5.8,3,5.8,7.1
	v7.5c0,0.4-0.3,0.7-0.7,0.7H123c-0.4,0-0.7-0.3-0.7-0.7v-7.6c0-2.5-1-3.9-3-3.9c-1.6,0-3.1,0.8-3.9,2.2v9.3c0,0.4-0.3,0.7-0.7,0.7
	c0,0-0.1,0-0.1,0h-1.8c-0.4,0-0.7-0.3-0.7-0.7v0L112.2,135.7z" class="st0"/>
    <path d="M136.5,142.4c3.7-0.1,6.7,2.8,6.8,6.5c0,0.1,0,0.3,0,0.4c0,0.3,0,0.8-0.1,1c0,0.4-0.3,0.6-0.7,0.6h-10.3
	c0.2,2.3,2.1,4.1,4.5,4.1c1.3,0,2.6-0.4,3.7-1.3c0.3-0.2,0.6-0.3,0.9,0.1l0.9,1.4c0.3,0.3,0.4,0.6-0.1,1c-1.6,1.2-3.5,1.9-5.5,1.9
	c-4.5,0-7.5-3.6-7.5-7.8S132,142.4,136.5,142.4z M140.1,148.6c-0.1-1.9-1.7-3.5-3.7-3.4c0,0,0,0,0,0c-2-0.1-3.8,1.4-4,3.4H140.1z" class="st0"/>
    <path d="M147.4,135.7c0-0.4,0.3-0.7,0.7-0.7h1.8c0.4,0,0.7,0.3,0.7,0.7V157c0,0.4-0.3,0.7-0.7,0.7h-1.8
	c-0.4,0-0.7-0.3-0.7-0.7V135.7z" class="st0"/>
    <path d="M155,156.5c-0.3-0.2-0.4-0.5-0.3-0.8l0.7-1.4c0.2-0.3,0.6-0.4,0.9-0.3c0,0,0.1,0,0.1,0.1
	c1.1,0.7,2.4,1.1,3.7,1.1c1.3,0,2-0.6,2-1.4c0-1-1.1-1.6-3.2-2.6c-2.3-1-4-2.3-4-4.7c0-1.9,1.3-4.1,5-4.1c1.5,0,3,0.3,4.4,1.1
	c0.4,0.2,0.5,0.7,0.3,1.1l-0.5,1c-0.2,0.4-0.6,0.5-1,0.3c0,0,0,0,0,0c-1-0.5-2.1-0.7-3.2-0.8c-1.3,0-1.9,0.6-1.9,1.3
	c0,1,1.1,1.6,2.6,2.2c2.8,1.2,4.8,2.2,4.8,5c0,2.3-2,4.4-5.3,4.4C158.3,158.1,156.5,157.6,155,156.5z" class="st0"/>
    <path d="M175.4,142.4c3.7-0.1,6.7,2.8,6.8,6.5c0,0.1,0,0.3,0,0.4c0,0.3,0,0.8-0.1,1c0,0.4-0.3,0.6-0.7,0.6h-10.3
	c0.2,2.3,2.1,4.1,4.5,4.1c1.3,0,2.6-0.4,3.7-1.3c0.3-0.2,0.6-0.3,0.9,0.1l0.9,1.4c0.3,0.3,0.4,0.6-0.1,1c-1.6,1.2-3.5,1.9-5.5,1.9
	c-4.5,0-7.5-3.6-7.5-7.8S170.9,142.4,175.4,142.4z M179,148.6c-0.1-2-1.7-3.5-3.7-3.4c0,0,0,0,0,0c-2-0.1-3.8,1.4-4,3.4H179z" class="st0"/>
    <path d="M185.7,137.4c0-1.2,0.9-2.2,2.1-2.2c0,0,0,0,0,0c1.2-0.1,2.3,0.8,2.3,2c0.1,1.2-0.8,2.3-2,2.3
	c-0.1,0-0.2,0-0.3,0C186.6,139.5,185.7,138.6,185.7,137.4C185.7,137.4,185.7,137.4,185.7,137.4z M186.2,143.5c0-0.4,0.3-0.7,0.7-0.7
	h1.8c0.4,0,0.7,0.3,0.7,0.7V157c0,0.4-0.3,0.7-0.7,0.7h-1.8c-0.4,0-0.7-0.3-0.7-0.7v0L186.2,143.5z" class="st0"/>
    <path d="M194.4,143.5c0-0.4,0.3-0.7,0.7-0.7h0.8c0.3,0,0.6,0.2,0.6,0.5l0.5,1.3c1.3-1.4,3.1-2.1,5-2.1
	c4.6,0,5.8,3.2,5.8,7.1v7.5c0,0.4-0.3,0.7-0.7,0.7h-1.8c-0.4,0-0.7-0.3-0.7-0.7v-7.6c0-2.4-1-3.9-2.9-3.9c-1.6,0-3.1,0.8-3.9,2.2
	v9.3c0,0.5-0.3,0.7-0.9,0.7h-1.6c-0.4,0-0.7-0.3-0.7-0.7v0L194.4,143.5z" class="st0"/>
    <path d="M212,156.5c-0.3-0.2-0.4-0.5-0.3-0.8c0,0,0,0,0,0l0.7-1.4c0.2-0.3,0.6-0.4,0.9-0.3c0,0,0.1,0,0.1,0.1
	c1.1,0.7,2.4,1.1,3.7,1.1c1.3,0,2-0.6,2-1.4c0-1-1.1-1.6-3.2-2.6c-2.3-1-4-2.3-4-4.7c0-1.9,1.3-4.1,5-4.1c1.5,0,3,0.3,4.4,1.1
	c0.4,0.2,0.5,0.7,0.3,1.1l-0.5,1c-0.2,0.3-0.6,0.5-0.9,0.3c0,0,0,0-0.1,0c-1-0.5-2.1-0.7-3.2-0.8c-1.3,0-1.9,0.6-1.9,1.3
	c0,1,1.1,1.6,2.6,2.2c2.8,1.2,4.8,2.2,4.8,5c0,2.3-2,4.4-5.3,4.4C215.1,158,213.4,157.5,212,156.5z" class="st0"/>
    <path d="M227.2,145.5h-1.7c-0.4,0-0.7-0.3-0.7-0.7v-1.3c0-0.4,0.3-0.7,0.7-0.7c0,0,0,0,0.1,0h1.7v-4.2
	c0-0.4,0.3-0.7,0.7-0.7h1.8c0.4,0,0.7,0.3,0.7,0.7c0,0,0,0,0,0v4.2h4c0.4,0,0.7,0.3,0.7,0.7c0,0,0,0,0,0v1.3c0,0.4-0.3,0.7-0.7,0.7
	h-4v8c0,1.3,0.5,1.5,1.2,1.5c0.8,0,1.7-0.3,2.4-0.7c0.3-0.2,0.6-0.1,0.8,0.1c0,0.1,0.1,0.1,0.1,0.2l0.6,1.5c0.2,0.4,0,0.6-0.4,0.9
	c-1.3,0.7-2.7,1.1-4.1,1.1c-3,0-3.8-1.8-3.8-4.5L227.2,145.5z" class="st0"/>
    <path d="M238.3,137.4c0-1.2,0.9-2.2,2.1-2.2c0,0,0,0,0,0c1.2-0.1,2.3,0.8,2.3,2c0.1,1.2-0.8,2.3-2,2.3
	c-0.1,0-0.2,0-0.3,0C239.2,139.5,238.3,138.6,238.3,137.4C238.3,137.4,238.3,137.4,238.3,137.4z M238.8,143.5c0-0.4,0.3-0.7,0.7-0.7
	h1.8c0.4,0,0.7,0.3,0.7,0.7V157c0,0.4-0.3,0.7-0.7,0.7h-1.8c-0.4,0-0.7-0.3-0.7-0.7V143.5z" class="st0"/>
    <path d="M247.8,145.5h-1.7c-0.4,0-0.7-0.3-0.7-0.7v-1.3c0-0.4,0.3-0.7,0.7-0.7c0,0,0,0,0.1,0h1.7v-4.2
	c0-0.4,0.3-0.7,0.7-0.7h1.8c0.4,0,0.7,0.3,0.7,0.7c0,0,0,0,0,0v4.2h4c0.4,0,0.7,0.3,0.7,0.7c0,0,0,0,0,0v1.3c0,0.4-0.3,0.7-0.7,0.7
	h-4v8c0,1.3,0.5,1.5,1.2,1.5c0.8,0,1.7-0.3,2.4-0.7c0.3-0.2,0.6-0.1,0.8,0.1c0,0.1,0.1,0.1,0.1,0.2l0.6,1.5c0.2,0.4,0,0.6-0.4,0.9
	c-1.3,0.7-2.7,1.1-4.1,1.1c-3,0-3.8-1.8-3.8-4.5L247.8,145.5z" class="st0"/>
    <path d="M259.2,143.5c0-0.4,0.3-0.7,0.7-0.7h1.8c0.4,0,0.7,0.3,0.7,0.7v8c0,2.5,1,3.6,2.9,3.6c1.6,0,3-1,3.5-2.5v-9.1
	c0-0.6,0.3-0.7,0.8-0.7h1.6c0.4,0,0.7,0.3,0.8,0.7V157c0,0.4-0.4,0.7-0.8,0.7h-0.8c-0.4,0-0.5-0.3-0.7-0.6l-0.4-1.1
	c-1.2,1.3-2.9,2.1-4.7,2c-4.5,0-5.6-3-5.6-6.9L259.2,143.5z" class="st0"/>
    <path d="M277.9,145.5h-1.7c-0.4,0-0.7-0.3-0.7-0.7v-1.3c0-0.4,0.3-0.7,0.7-0.7c0,0,0,0,0.1,0h1.7v-4.2
	c0-0.4,0.3-0.7,0.7-0.7h1.8c0.4,0,0.7,0.3,0.7,0.7c0,0,0,0,0,0v4.2h4c0.4,0,0.7,0.3,0.7,0.7c0,0,0,0,0,0v1.3c0,0.4-0.3,0.7-0.7,0.7
	h-4v8c0,1.3,0.5,1.5,1.2,1.5c0.8,0,1.7-0.3,2.4-0.7c0.3-0.2,0.6-0.1,0.8,0.1c0,0.1,0.1,0.1,0.1,0.2l0.6,1.5c0.2,0.4,0,0.6-0.4,0.9
	c-1.3,0.7-2.7,1.1-4.1,1.1c-3,0-3.8-1.8-3.8-4.5L277.9,145.5z" class="st0"/>
    <path d="M291,145.5h-1.7c-0.4,0-0.7-0.3-0.7-0.7v-1.3c0-0.4,0.3-0.7,0.7-0.7c0,0,0,0,0.1,0h1.7v-4.2
	c0-0.4,0.3-0.7,0.7-0.7h1.9c0.4,0,0.7,0.3,0.7,0.7c0,0,0,0,0,0v4.2h4c0.4,0,0.7,0.3,0.7,0.7c0,0,0,0,0,0v1.3c0,0.4-0.3,0.7-0.7,0.7
	h-4v8c0,1.3,0.5,1.5,1.2,1.5c0.8,0,1.7-0.3,2.4-0.7c0.3-0.2,0.6-0.1,0.8,0.1c0,0.1,0.1,0.1,0.1,0.2l0.6,1.5c0.2,0.4,0,0.6-0.4,0.9
	c-1.3,0.7-2.7,1.1-4.1,1.1c-3,0-3.8-1.8-3.8-4.5V145.5z" class="st0"/>
    <path d="M308.9,142.4c3.7-0.1,6.7,2.8,6.8,6.5c0,0.1,0,0.3,0,0.4c0,0.3,0,0.7-0.1,1c0,0.4-0.3,0.6-0.7,0.6h-10.3
	c0.2,2.3,2.1,4.1,4.5,4.1c1.3,0,2.6-0.4,3.7-1.3c0.3-0.2,0.6-0.3,0.9,0.1l0.9,1.4c0.3,0.3,0.4,0.6-0.1,1c-1.6,1.2-3.5,1.9-5.5,1.9
	c-4.5,0-7.5-3.6-7.5-7.8S304.4,142.4,308.9,142.4z M312.6,148.6c-0.1-1.9-1.7-3.5-3.7-3.4c0,0,0,0,0,0c-2-0.1-3.8,1.4-4,3.4H312.6z" class="st0"/>
    <path d="M320.5,145.5h-1.7c-0.4,0-0.7-0.3-0.7-0.7v-1.3c0-0.4,0.3-0.7,0.7-0.7c0,0,0,0,0.1,0h1.7v-4.2
	c0-0.4,0.3-0.7,0.7-0.7h1.8c0.4,0,0.7,0.3,0.7,0.7c0,0,0,0,0,0v4.2h3.9c0.4,0,0.7,0.3,0.7,0.7c0,0,0,0,0,0v1.3
	c0,0.4-0.3,0.7-0.7,0.7h-4v8c0,1.3,0.5,1.5,1.2,1.5c0.8,0,1.7-0.3,2.4-0.7c0.3-0.2,0.6-0.1,0.8,0.1c0,0.1,0.1,0.1,0.1,0.2l0.6,1.5
	c0.2,0.4,0,0.6-0.4,0.9c-1.3,0.7-2.7,1.1-4.1,1.1c-3,0-3.8-1.8-3.8-4.5L320.5,145.5z" class="st0"/>
</svg>
